<svg xmlns="http://www.w3.org/2000/svg" width="57" height="71" viewBox="0 0 57 71"><g><g><path fill="#fff" d="M14 28c0-7.721 6.503-14 14.5-14S43 20.279 43 28s-6.503 14-14.5 14S14 35.721 14 28zm7.25 0c0 3.86 3.252 7 7.25 7s7.25-3.14 7.25-7-3.252-7-7.25-7-7.25 3.14-7.25 7z"/></g><g><path fill="#fff" d="M0 28.383C0 12.74 12.786 0 28.5 0S57 12.741 57 28.4c.103 22.862-25.35 41.177-26.434 41.94a3.564 3.564 0 0 1-4.132 0C25.35 69.577-.103 51.262 0 28.382zm7.125.017C7.05 44.166 22.761 58.316 28.5 62.96c5.743-4.64 21.45-18.787 21.375-34.542C49.875 16.653 40.288 7.1 28.5 7.1S7.125 16.653 7.125 28.4z"/></g></g></svg>